#N canvas 143 63 1024 657 10;
#X declare -path patch_editor_abs;
#X declare -path GenerativeMusicPatches;
#X obj 37 594 declare -path patch_editor_abs;
#X obj 37 620 declare -path GenerativeMusicPatches;
#N canvas 0 22 450 278 (subpatch) 0;
#X array jump 17967 float 2;
#X coords 0 1 17967 -1 200 140 1;
#X restore 29 165 graph;
#X msg 34 77 read -resize \$1 jump;
#X obj 34 28 loadbang;
#X obj 34 100 soundfiler;
#X msg 34 53 open mario_jump.wav;
#X obj 433 202 r jump;
#X obj 433 227 bng 15 250 50 0 empty empty empty 17 7 0 10 -262144
-1 -1;
#X obj 433 249 tabplay~ jump;
#X obj 318 220 gain2~;
#X obj 355 144 r music_vol;
#X obj 338 94 loadbang 0.5;
#X msg 338 119 0.25;
#X obj 238 95 r toggle music;
#X obj 318 166 tgl 15 0 empty empty empty 17 7 0 10 -262144 -1 -1 0
1;
#X obj 433 276 gain~;
#X obj 425 496 dac~;
#X connect 3 0 5 0;
#X connect 4 0 6 0;
#X connect 6 0 3 0;
#X connect 7 0 8 0;
#X connect 8 0 9 0;
#X connect 9 0 16 0;
#X connect 10 0 17 0;
#X connect 10 1 17 1;
#X connect 11 0 10 1;
#X connect 11 0 10 3;
#X connect 12 0 13 0;
#X connect 13 0 10 1;
#X connect 13 0 10 3;
#X connect 14 0 15 0;
#X connect 16 0 17 0;
#X connect 16 0 17 1;
