#N canvas 367 438 416 408 10;
#X obj 65 28 inlet;
#X obj 66 349 outlet~;
#X obj 66 79 sel 0;
#X obj 105 107 t b b b;
#X obj 122 168 pack 1 0;
#X obj 66 303 line~;
#X obj 186 134 + 1;
#X obj 186 168 delay;
#X obj 186 201 pack 0 0 0;
#X obj 186 232 route 0;
#X obj 67 253 pack 0 0;
#X msg 78 134 stop;
#X obj 88 168 f 0;
#X obj 311 27 inlet rel;
#X obj 111 27 inlet att;
#X obj 179 27 inlet dec;
#X obj 246 26 inlet sus;
#X connect 0 0 2 0;
#X connect 2 0 10 0;
#X connect 2 0 11 0;
#X connect 2 1 3 0;
#X connect 3 0 7 0;
#X connect 3 1 4 0;
#X connect 3 2 12 0;
#X connect 4 0 5 0;
#X connect 5 0 1 0;
#X connect 6 0 7 1;
#X connect 7 0 8 0;
#X connect 8 0 9 0;
#X connect 9 0 5 0;
#X connect 10 0 5 0;
#X connect 11 0 7 0;
#X connect 12 0 5 0;
#X connect 13 0 10 1;
#X connect 14 0 6 0;
#X connect 14 0 4 1;
#X connect 15 0 8 2;
#X connect 16 0 8 1;
