#N canvas 123 132 751 521 10;
#X obj 222 188 r bpm;
#N canvas 296 262 649 492 mbtdly1 1;
#X obj -184 117 inlet~;
#X obj 233 69 inlet;
#X obj 132 140 pow -1;
#X obj 153 178 / 4;
#X obj 184 207 *;
#X obj 166 243 * 60000;
#X text 270 70 <- bpm in;
#X obj 102 111 float;
#X obj 112 44 t b f;
#X text 131 -4 beatsynced delay with feedback and mod;
#X obj 61 363 abs_moddelayline1;
#X obj 81 322 +~;
#X obj 122 537 outlet~;
#X obj 121 516 +~;
#X obj 150 455 *~;
#X obj 72 482 *~;
#X obj 88 434 * -1;
#X obj 88 458 + 1;
#X obj 7 16 hsl 96 10 0 0.95 0 1 empty empty feedback 0 5 0 10 -262144
-1 -128992 1000 1;
#X obj 69 1 nbx 3 14 0 32 0 1 empty empty empty 0 -8 0 10 -262144 -1
-1 2 256;
#X obj 7 28 hsl 96 10 0 1 0 1 empty empty dry/wet 0 5 0 10 -262144
-1 -128992 950 1;
#X obj 231 49 r \$0globalbpm1;
#X obj 367 96 random 8;
#X obj 366 120 + 1;
#X obj 382 32 inlet;
#X text 418 32 random delay time;
#X obj 374 67 t b;
#X obj -108 29 inlet;
#X obj -46 71 / 128;
#X obj -45 100 clip -1 1;
#X obj -40 155 * 300;
#X obj -30 189 lop~ 250;
#X text -108 5 mod;
#X obj 423 67 loadbang;
#X obj -57 -19 loadbang;
#X obj 6 -20 inlet;
#X obj 52 -19 inlet;
#X msg -57 5 0.1;
#X connect 0 0 10 0;
#X connect 0 0 15 0;
#X connect 1 0 7 0;
#X connect 2 0 3 0;
#X connect 3 0 4 0;
#X connect 4 0 5 0;
#X connect 5 0 11 1;
#X connect 7 0 2 0;
#X connect 8 0 7 0;
#X connect 8 1 4 1;
#X connect 10 0 14 0;
#X connect 11 0 10 1;
#X connect 13 0 12 0;
#X connect 14 0 13 1;
#X connect 15 0 13 0;
#X connect 16 0 17 0;
#X connect 17 0 15 1;
#X connect 18 0 10 2;
#X connect 19 0 8 0;
#X connect 20 0 14 1;
#X connect 20 0 16 0;
#X connect 21 0 7 0;
#X connect 22 0 23 0;
#X connect 23 0 19 0;
#X connect 24 0 26 0;
#X connect 26 0 22 0;
#X connect 27 0 28 0;
#X connect 28 0 29 0;
#X connect 29 0 30 0;
#X connect 30 0 31 0;
#X connect 31 0 11 0;
#X connect 33 0 22 0;
#X connect 34 0 37 0;
#X connect 35 0 18 0;
#X connect 36 0 20 0;
#X connect 37 0 18 0;
#X connect 37 0 20 0;
#X coords 0 -1 1 1 110 40 1 0 0;
#X restore 140 218 pd mbtdly1;
#X obj 159 187 r mod;
#X obj 237 154 inlet fb;
#X obj 277 183 inlet d/w;
#X obj 319 138 r _Delay @hv_param 0 1 0.1;
#X obj 240 91 r _Delay_Feedback @hv_param 0 0.99 0.1;
#X obj 138 123 inlet~;
#N canvas 115 236 977 518 reverb2 0;
#X obj 25 29 inlet~;
#X obj 6 365 outlet~;
#X obj 97 366 outlet~;
#X obj 105 120 hsl 100 15 1 0 0 1 empty empty lv 2 5 0 10 -262144 -1
-1 4950 1;
#X obj 107 204 *;
#X obj 114 228 *;
#X obj 82 183 t b f f;
#X obj 98 253 -;
#X msg 82 231 1;
#X obj 117 285 * 100;
#X obj 105 140 hsl 100 15 1 0 0 1 empty empty dp 2 5 0 10 -262144 -1
-1 4950 1;
#X obj 180 215 *;
#X obj 184 239 *;
#X obj 171 188 t f f;
#X obj 186 271 * 100;
#X obj 105 161 hsl 100 15 1 0 0 1 empty empty co 2 5 0 10 -262144 -1
-1 3267 1;
#X obj 167 294 * 6000;
#X obj 76 321 reverb 100 90 3000 20;
#X obj 126 17 loadbang;
#X obj 245 57 inlet lv;
#X obj 321 80 inlet dp;
#X obj 374 105 inlet co;
#X msg 96 56 0.5;
#X msg 142 56 0.5;
#X msg 179 55 0.67;
#X connect 0 0 17 0;
#X connect 3 0 6 0;
#X connect 4 0 5 1;
#X connect 4 0 5 0;
#X connect 5 0 7 1;
#X connect 6 0 8 0;
#X connect 6 1 4 0;
#X connect 6 2 4 1;
#X connect 7 0 9 0;
#X connect 8 0 7 0;
#X connect 9 0 17 2;
#X connect 10 0 13 0;
#X connect 11 0 12 1;
#X connect 11 0 12 0;
#X connect 12 0 14 0;
#X connect 13 0 11 0;
#X connect 13 1 11 1;
#X connect 14 0 17 4;
#X connect 15 0 16 0;
#X connect 16 0 17 3;
#X connect 17 0 1 0;
#X connect 17 1 2 0;
#X connect 18 0 22 0;
#X connect 18 0 23 0;
#X connect 18 0 24 0;
#X connect 19 0 3 0;
#X connect 20 0 10 0;
#X connect 21 0 15 0;
#X connect 22 0 3 0;
#X connect 23 0 10 0;
#X connect 24 0 15 0;
#X coords 0 -1 1 1 110 80 1 100 100;
#X restore 139 330 pd reverb2;
#X obj 231 265 inlet lv;
#X obj 254 286 inlet dp;
#X obj 277 303 inlet co;
#X obj 310 239 r _Reverb @hv_param 0 1 0.5;
#X obj 140 434 outlet~;
#X obj 241 436 outlet~;
#X connect 0 0 1 4;
#X connect 1 0 8 0;
#X connect 2 0 1 1;
#X connect 3 0 1 2;
#X connect 4 0 1 3;
#X connect 5 0 1 3;
#X connect 6 0 1 2;
#X connect 7 0 1 0;
#X connect 8 0 13 0;
#X connect 8 1 14 0;
#X connect 9 0 8 1;
#X connect 10 0 8 2;
#X connect 11 0 8 3;
#X connect 12 0 8 1;
