#N canvas 158 458 761 535 10;
#X obj 140 108 hip~ 5;
#X obj 441 109 hip~ 5;
#X obj 139 72 inlet~ left;
#X obj 442 75 inlet~ right;
#X obj 256 73 inlet leftGain;
#X obj 498 108 inlet rightGain;
#X obj 141 326 *~;
#X obj 440 332 *~;
#X obj 140 385 outlet~ left;
#X obj 440 381 outlet~ right;
#X obj 211 163 loadbang;
#X obj 258 266 hsl 64 15 0 1 0 0 empty empty Right -2 -8 0 10 -204786
-1 -1 6300 1;
#X obj 259 230 hsl 64 15 0 1 0 0 empty empty Left -2 -8 0 10 -204786
-1 -1 6300 1;
#X msg 211 193 1;
#X connect 0 0 6 0;
#X connect 1 0 7 0;
#X connect 2 0 0 0;
#X connect 3 0 1 0;
#X connect 4 0 12 0;
#X connect 5 0 11 0;
#X connect 6 0 8 0;
#X connect 7 0 9 0;
#X connect 10 0 13 0;
#X connect 11 0 7 1;
#X connect 12 0 6 1;
#X connect 13 0 12 0;
#X connect 13 0 11 0;
#X coords 0 -1 1 1 80 90 1 250 200;
