#N canvas 309 78 831 375 10;
#X obj 100 60 inlet in_min;
#X obj 22 60 inlet data;
#X obj 181 60 inlet in_max;
#X obj 273 60 inlet out_min;
#X obj 364 61 inlet out_max;
#X obj 118 151 f \$1;
#X obj 180 152 f \$2;
#X obj 24 334 outlet data;
#X obj 153 216 -;
#X obj 152 189 swap;
#X obj 340 220 -;
#X obj 339 193 swap;
#X obj 305 155 f \$3;
#X obj 367 156 f \$4;
#X obj 24 237 -;
#X obj 24 262 *;
#X obj 24 286 /;
#X obj 24 311 +;
#X obj 214 89 loadbang;
#X obj 214 111 t b b b b;
#X obj 364 82 t b f;
#X obj 173 88 t b f;
#X text 486 117 LDscale scales an input value in the range of [in_min
\, in_max] to an output value in the range of [out_min \, out_max].
This is intended to work the way the scale object does in Max Luke
Dahl 2016;
#X connect 0 0 5 0;
#X connect 1 0 14 0;
#X connect 2 0 21 0;
#X connect 3 0 12 0;
#X connect 4 0 20 0;
#X connect 5 0 9 0;
#X connect 5 0 14 1;
#X connect 6 0 9 1;
#X connect 8 0 16 1;
#X connect 9 0 8 0;
#X connect 9 1 8 1;
#X connect 10 0 15 1;
#X connect 11 0 10 0;
#X connect 11 1 10 1;
#X connect 12 0 11 0;
#X connect 12 0 17 1;
#X connect 13 0 11 1;
#X connect 14 0 15 0;
#X connect 15 0 16 0;
#X connect 16 0 17 0;
#X connect 17 0 7 0;
#X connect 18 0 19 0;
#X connect 19 0 5 0;
#X connect 19 1 6 0;
#X connect 19 2 12 0;
#X connect 19 3 13 0;
#X connect 20 0 12 0;
#X connect 20 1 13 0;
#X connect 21 0 5 0;
#X connect 21 1 6 0;
