#N canvas 0 23 561 364 10;
#X obj 183 96 inlet~;
#X obj 276 95 inlet~;
#X obj 183 135 lop~ 200;
#X obj 275 134 lop~ 200;
#X obj 372 93 inlet fc;
#X obj 183 179 outlet~;
#X obj 275 179 outlet~;
#X connect 0 0 2 0;
#X connect 1 0 3 0;
#X connect 2 0 5 0;
#X connect 3 0 6 0;
#X connect 4 0 3 1;
#X connect 4 0 2 1;
