#N canvas 313 46 998 1261 10;
#X obj 116 51 bng 20 250 50 0 empty empty empty 20 8 0 8 -262144 -1
-1;
#X floatatom 150 112 3 0 0 0 - - -, f 3;
#X text 82 25 STEP;
#X obj 116 17 inlet;
#X obj 176 110 outlet;
#X obj 115 111 f 0;
#X msg 67 257 seed \$1;
#X obj 67 227 r _RandomSeed @hv_param 0 86400;
#X obj 148 55 r \$0-state;
#X obj 114 160 s \$0-st0;
#X obj 115 135 sel 0 1 2 3 4 5 6 7 ----------------------------------------
, f 71;
#X obj 174 160 s \$0-st1;
#X obj 232 160 s \$0-st2;
#X obj 289 160 s \$0-st3;
#X obj 344 160 s \$0-st4;
#X obj 403 160 s \$0-st5;
#X obj 460 160 s \$0-st6;
#X obj 519 160 s \$0-st7;
#X obj 238 260 r \$0-st0;
#X obj 238 310 s \$0-state;
#X obj 238 284 markov_scale, f 83;
#X msg 299 260 7;
#X msg 361 260 7;
#X msg 422 260 7;
#X msg 484 260 7;
#X msg 546 261 7;
#X msg 608 261 7;
#X msg 671 261 7;
#X obj 253 433 s \$0-state;
#X obj 253 407 markov_scale, f 83;
#X obj 253 383 r \$0-st1;
#X msg 314 383 0;
#X msg 437 383 0;
#X msg 500 383 0;
#X msg 561 384 0;
#X msg 623 384 0;
#X msg 686 384 0;
#X msg 747 384 0;
#X obj 275 557 s \$0-state;
#X obj 275 531 markov_scale, f 83;
#X obj 275 507 r \$0-st2;
#X msg 336 507 2;
#X msg 398 507 4;
#X msg 459 507 4;
#X msg 521 507 4;
#X msg 583 508 4;
#X msg 708 508 4;
#X obj 300 684 s \$0-state;
#X obj 300 658 markov_scale, f 83;
#X msg 670 635 2;
#X msg 361 634 0;
#X msg 423 634 4;
#X msg 484 634 4;
#X msg 546 634 4;
#X msg 608 635 4;
#X msg 733 635 4;
#X obj 339 810 s \$0-state;
#X obj 339 784 markov_scale, f 83;
#X obj 300 634 r \$0-st3;
#X obj 339 760 r \$0-st4;
#X msg 400 760 0;
#X msg 462 760 2;
#X msg 523 760 2;
#X msg 585 760 2;
#X msg 647 761 2;
#X msg 709 761 2;
#X msg 772 761 2;
#X msg 833 761 2;
#X obj 360 941 s \$0-state;
#X obj 360 915 markov_scale, f 83;
#X msg 421 891 0;
#X msg 483 891 4;
#X msg 544 891 4;
#X msg 606 891 4;
#X msg 668 892 4;
#X msg 730 892 4;
#X msg 793 892 4;
#X msg 854 892 4;
#X obj 360 891 r \$0-st5;
#X obj 380 1080 s \$0-state;
#X obj 380 1054 markov_scale, f 83;
#X msg 441 1030 0;
#X msg 504 1030 2;
#X msg 564 1030 0;
#X msg 627 1030 0;
#X obj 380 1030 r \$0-st6;
#X obj 410 1218 s \$0-state;
#X obj 410 1192 markov_scale, f 83;
#X msg 471 1168 0;
#X msg 534 1168 2;
#X msg 594 1168 0;
#X msg 657 1168 0;
#X msg 718 1169 0;
#X msg 780 1169 0;
#X msg 843 1169 0;
#X msg 904 1169 0;
#X msg 874 1031 7;
#X msg 813 1031 7;
#X msg 732 261 7;
#X msg 645 508 4;
#X msg 794 635 1;
#X msg 377 383 2;
#X msg 771 507 0;
#X obj 299 205 inlet a;
#X obj 312 332 inlet b;
#X obj 410 1168 r \$0-st7;
#X obj 337 460 inlet c;
#X obj 359 585 inlet d;
#X obj 399 715 inlet e;
#X obj 420 836 inlet f;
#X obj 441 974 inlet g;
#X obj 474 1110 inlet h;
#X msg 750 1031 0;
#X msg 688 1031 0;
#X obj 299 231 note_pool, f 73;
#X obj 336 482 note_pool, f 73;
#X obj 470 1138 note_pool, f 73;
#X obj 313 356 note_pool, f 73;
#X obj 420 863 note_pool, f 73;
#X obj 399 738 note_pool, f 73;
#X obj 441 999 note_pool, f 73;
#X obj 360 608 note_pool, f 73;
#X connect 0 0 5 0;
#X connect 3 0 0 0;
#X connect 5 0 10 0;
#X connect 6 0 20 0;
#X connect 6 0 29 0;
#X connect 6 0 39 0;
#X connect 6 0 48 0;
#X connect 6 0 57 0;
#X connect 6 0 87 0;
#X connect 6 0 80 0;
#X connect 6 0 69 0;
#X connect 7 0 6 0;
#X connect 8 0 4 0;
#X connect 8 0 5 1;
#X connect 8 0 1 0;
#X connect 10 0 9 0;
#X connect 10 1 11 0;
#X connect 10 2 12 0;
#X connect 10 3 13 0;
#X connect 10 4 14 0;
#X connect 10 5 15 0;
#X connect 10 6 16 0;
#X connect 10 7 17 0;
#X connect 18 0 20 0;
#X connect 20 0 19 0;
#X connect 21 0 20 1;
#X connect 22 0 20 2;
#X connect 23 0 20 3;
#X connect 24 0 20 4;
#X connect 25 0 20 5;
#X connect 26 0 20 6;
#X connect 27 0 20 7;
#X connect 29 0 28 0;
#X connect 30 0 29 0;
#X connect 31 0 29 1;
#X connect 32 0 29 3;
#X connect 33 0 29 4;
#X connect 34 0 29 5;
#X connect 35 0 29 6;
#X connect 36 0 29 7;
#X connect 37 0 29 8;
#X connect 39 0 38 0;
#X connect 40 0 39 0;
#X connect 41 0 39 1;
#X connect 42 0 39 2;
#X connect 43 0 39 3;
#X connect 44 0 39 4;
#X connect 45 0 39 5;
#X connect 46 0 39 7;
#X connect 48 0 47 0;
#X connect 49 0 48 6;
#X connect 50 0 48 1;
#X connect 51 0 48 2;
#X connect 52 0 48 3;
#X connect 53 0 48 4;
#X connect 54 0 48 5;
#X connect 55 0 48 7;
#X connect 57 0 56 0;
#X connect 58 0 48 0;
#X connect 59 0 57 0;
#X connect 60 0 57 1;
#X connect 61 0 57 2;
#X connect 62 0 57 3;
#X connect 63 0 57 4;
#X connect 64 0 57 5;
#X connect 65 0 57 6;
#X connect 66 0 57 7;
#X connect 67 0 57 8;
#X connect 69 0 68 0;
#X connect 70 0 69 1;
#X connect 71 0 69 2;
#X connect 72 0 69 3;
#X connect 73 0 69 4;
#X connect 74 0 69 5;
#X connect 75 0 69 6;
#X connect 76 0 69 7;
#X connect 77 0 69 8;
#X connect 78 0 69 0;
#X connect 80 0 79 0;
#X connect 81 0 80 1;
#X connect 82 0 80 2;
#X connect 83 0 80 3;
#X connect 84 0 80 4;
#X connect 85 0 80 0;
#X connect 87 0 86 0;
#X connect 88 0 87 1;
#X connect 89 0 87 2;
#X connect 90 0 87 3;
#X connect 91 0 87 4;
#X connect 92 0 87 5;
#X connect 93 0 87 6;
#X connect 94 0 87 7;
#X connect 95 0 87 8;
#X connect 96 0 80 8;
#X connect 97 0 80 7;
#X connect 98 0 20 8;
#X connect 99 0 39 6;
#X connect 100 0 48 8;
#X connect 101 0 29 2;
#X connect 102 0 39 8;
#X connect 103 0 114 0;
#X connect 104 0 117 0;
#X connect 105 0 87 0;
#X connect 107 0 121 0;
#X connect 108 0 119 0;
#X connect 109 0 118 0;
#X connect 110 0 120 0;
#X connect 111 0 116 0;
#X connect 112 0 80 6;
#X connect 113 0 80 5;
#X connect 114 0 21 0;
#X connect 114 1 22 0;
#X connect 114 2 23 0;
#X connect 114 3 24 0;
#X connect 114 4 25 0;
#X connect 114 5 26 0;
#X connect 114 6 27 0;
#X connect 114 7 98 0;
#X connect 115 0 41 0;
#X connect 115 1 42 0;
#X connect 115 2 43 0;
#X connect 115 3 44 0;
#X connect 115 4 45 0;
#X connect 115 5 99 0;
#X connect 115 6 46 0;
#X connect 115 7 102 0;
#X connect 116 0 88 0;
#X connect 116 1 89 0;
#X connect 116 2 90 0;
#X connect 116 3 91 0;
#X connect 116 4 92 0;
#X connect 116 5 93 0;
#X connect 116 6 94 0;
#X connect 116 7 95 0;
#X connect 117 0 31 0;
#X connect 117 1 101 0;
#X connect 117 2 32 0;
#X connect 117 3 33 0;
#X connect 117 4 34 0;
#X connect 117 5 35 0;
#X connect 117 6 36 0;
#X connect 117 7 37 0;
#X connect 118 0 70 0;
#X connect 118 1 71 0;
#X connect 118 2 72 0;
#X connect 118 3 73 0;
#X connect 118 4 74 0;
#X connect 118 5 75 0;
#X connect 118 6 76 0;
#X connect 118 7 77 0;
#X connect 119 0 60 0;
#X connect 119 1 61 0;
#X connect 119 2 62 0;
#X connect 119 3 63 0;
#X connect 119 4 64 0;
#X connect 119 5 65 0;
#X connect 119 6 66 0;
#X connect 119 7 67 0;
#X connect 120 0 81 0;
#X connect 120 1 82 0;
#X connect 120 2 83 0;
#X connect 120 3 84 0;
#X connect 120 4 113 0;
#X connect 120 5 112 0;
#X connect 120 6 97 0;
#X connect 120 7 96 0;
#X connect 121 0 50 0;
#X connect 121 1 51 0;
#X connect 121 2 52 0;
#X connect 121 3 53 0;
#X connect 121 4 54 0;
#X connect 121 5 49 0;
#X connect 121 6 55 0;
#X connect 121 7 100 0;
