#N canvas 0 23 709 485 10;
#X obj 382 43 inlet duration;
#X obj 251 41 inlet velocity;
#X obj 94 41 inlet note;
#X obj 97 320 outlet;
#X msg 381 235 0;
#X obj 253 317 outlet;
#X obj 166 236 f;
#X floatatom 166 278 5 0 0 0 - - -, f 5;
#X obj 370 291 f;
#X obj 354 198 t b b b, f 8;
#X obj 370 318 s vel;
#X obj 354 176 delay;
#X obj 409 113 !=;
#X obj 382 69 t f f;
#X obj 409 136 sel 1;
#X msg 353 153 stop;
#X obj 95 75 t b f;
#X connect 0 0 13 0;
#X connect 1 0 5 0;
#X connect 1 0 8 1;
#X connect 2 0 16 0;
#X connect 4 0 5 0;
#X connect 6 0 7 0;
#X connect 6 0 3 0;
#X connect 8 0 10 0;
#X connect 9 0 8 0;
#X connect 9 1 6 0;
#X connect 9 2 4 0;
#X connect 11 0 9 0;
#X connect 12 0 14 0;
#X connect 13 0 11 1;
#X connect 13 0 12 1;
#X connect 13 1 12 0;
#X connect 14 0 9 0;
#X connect 14 0 15 0;
#X connect 15 0 11 0;
#X connect 16 0 11 0;
#X connect 16 1 3 0;
#X connect 16 1 6 1;
