#N canvas 900 312 992 694 10;
#X obj 63 246 mtof;
#X obj 447 366 / 127;
#X obj 65 525 *~;
#X obj 64 172 inlet;
#X obj 65 598 outlet~;
#X obj 65 557 *~;
#X obj 419 323 sel 0;
#X obj 64 201 unpack f f;
#X obj 63 285 sig~;
#X obj 83 330 *~;
#X obj 83 406 *~;
#X obj 65 437 +~;
#X obj 122 466 adsr, f 15;
#X obj 142 429 inlet attack;
#X obj 224 430 inlet decay;
#X obj 300 430 inlet sustain;
#X obj 390 429 inlet release;
#X obj 489 431 inlet harm_ratio;
#X obj 601 431 inlet mod_index;
#X obj 489 458 s \$0-harm_ratio;
#X obj 601 458 s \$0-mod_index;
#X obj 227 348 r \$0-mod_index;
#X obj 101 286 r \$0-harm_ratio;
#X obj 210 124 adsr_control;
#X obj 192 322 adsr, f 36;
#X obj 192 371 *~;
#X obj 209 89 route a d s r;
#X obj 710 431 inlet modulator_env;
#X obj 209 26 r \$0-mod_env;
#X obj 710 458 s \$0-mod_env;
#X obj 334 22 loadbang;
#X msg 334 51 a 200 \, d 50 \, s 0.5 \, r 500;
#X obj 83 364 osc~;
#X obj 65 466 phasor~;
#X connect 0 0 8 0;
#X connect 1 0 5 1;
#X connect 2 0 5 0;
#X connect 3 0 7 0;
#X connect 5 0 4 0;
#X connect 6 1 1 0;
#X connect 7 0 0 0;
#X connect 7 1 6 0;
#X connect 7 1 12 0;
#X connect 7 1 24 0;
#X connect 8 0 9 0;
#X connect 8 0 11 0;
#X connect 9 0 32 0;
#X connect 10 0 11 1;
#X connect 11 0 33 0;
#X connect 12 0 2 1;
#X connect 13 0 12 1;
#X connect 14 0 12 2;
#X connect 15 0 12 3;
#X connect 16 0 12 4;
#X connect 17 0 19 0;
#X connect 18 0 20 0;
#X connect 21 0 25 1;
#X connect 22 0 9 1;
#X connect 23 0 24 1;
#X connect 23 1 24 2;
#X connect 23 2 24 3;
#X connect 23 3 24 4;
#X connect 24 0 25 0;
#X connect 25 0 10 1;
#X connect 26 0 23 0;
#X connect 26 1 23 1;
#X connect 26 2 23 2;
#X connect 26 3 23 3;
#X connect 27 0 29 0;
#X connect 28 0 26 0;
#X connect 30 0 31 0;
#X connect 31 0 26 0;
#X connect 32 0 10 0;
#X connect 33 0 2 0;
