#N canvas 636 162 560 460 10;
#X obj 47 136 mtof;
#X obj 248 167 / 127;
#X obj 46 333 *~;
#X obj 47 30 inlet;
#X obj 46 399 outlet~;
#X obj 46 365 *~;
#X obj 47 168 osc~;
#X obj 247 119 sel 0;
#X obj 105 169 adsr, f 9;
#X obj 47 59 unpack f f;
#X obj 144 57 inlet a;
#X obj 202 57 inlet d;
#X obj 260 58 inlet s;
#X obj 320 58 inlet r;
#X connect 0 0 6 0;
#X connect 1 0 5 1;
#X connect 2 0 5 0;
#X connect 3 0 9 0;
#X connect 5 0 4 0;
#X connect 6 0 2 0;
#X connect 7 1 1 0;
#X connect 8 0 2 1;
#X connect 9 0 0 0;
#X connect 9 1 7 0;
#X connect 9 1 8 0;
#X connect 10 0 8 1;
#X connect 11 0 8 2;
#X connect 12 0 8 3;
#X connect 13 0 8 4;
