#N canvas 893 418 957 552 10;
#X floatatom 397 237 5 0 7 0 - - -, f 5;
#X floatatom 433 236 5 0 7 0 - - -, f 5;
#X floatatom 471 237 5 0 7 0 - - -, f 5;
#X floatatom 508 237 5 0 7 0 - - -, f 5;
#X floatatom 544 237 5 0 7 0 - - -, f 5;
#X floatatom 362 237 5 0 7 0 - - -, f 5;
#X floatatom 326 237 5 0 7 0 - - -, f 5;
#X floatatom 288 237 5 0 7 0 - - -, f 5;
#X obj 286 141 inlet list;
#X obj 288 348 outlet;
#X msg 287 284 set \$1;
#X obj 343 347 outlet;
#X msg 342 284 set \$1;
#X obj 399 347 outlet;
#X msg 398 284 set \$1;
#X obj 454 347 outlet;
#X msg 453 284 set \$1;
#X obj 504 347 outlet;
#X msg 503 284 set \$1;
#X obj 559 347 outlet;
#X msg 558 284 set \$1;
#X obj 615 347 outlet;
#X msg 614 284 set \$1;
#X obj 670 347 outlet;
#X msg 669 284 set \$1;
#X obj 287 178 route a b c d e f g h;
#X text 362 140 input list for markov notes \, single element has 100%
chance;
#X obj 738 283 loadbang;
#X obj 242 285 bng 15 250 50 0 empty empty empty 17 7 0 10 -262144
-1 -1;
#X obj 240 182 bng 15 250 50 0 empty empty empty 17 7 0 10 -262144
-1 -1;
#X obj 241 238 del 5;
#X connect 0 0 16 0;
#X connect 1 0 18 0;
#X connect 2 0 20 0;
#X connect 3 0 22 0;
#X connect 4 0 24 0;
#X connect 5 0 14 0;
#X connect 6 0 12 0;
#X connect 7 0 10 0;
#X connect 8 0 25 0;
#X connect 8 0 29 0;
#X connect 10 0 9 0;
#X connect 12 0 11 0;
#X connect 14 0 13 0;
#X connect 16 0 15 0;
#X connect 18 0 17 0;
#X connect 20 0 19 0;
#X connect 22 0 21 0;
#X connect 24 0 23 0;
#X connect 25 0 7 0;
#X connect 25 1 6 0;
#X connect 25 2 5 0;
#X connect 25 3 0 0;
#X connect 25 4 1 0;
#X connect 25 5 2 0;
#X connect 25 6 3 0;
#X connect 25 7 4 0;
#X connect 25 8 7 0;
#X connect 25 8 6 0;
#X connect 25 8 5 0;
#X connect 25 8 0 0;
#X connect 25 8 1 0;
#X connect 25 8 2 0;
#X connect 25 8 3 0;
#X connect 25 8 4 0;
#X connect 27 0 9 0;
#X connect 27 0 11 0;
#X connect 27 0 13 0;
#X connect 27 0 15 0;
#X connect 27 0 17 0;
#X connect 27 0 19 0;
#X connect 27 0 21 0;
#X connect 27 0 23 0;
#X connect 28 0 9 0;
#X connect 28 0 11 0;
#X connect 28 0 13 0;
#X connect 28 0 15 0;
#X connect 28 0 17 0;
#X connect 28 0 19 0;
#X connect 28 0 21 0;
#X connect 28 0 23 0;
#X connect 29 0 30 0;
#X connect 30 0 28 0;
