#N canvas 0 22 653 433 10;
#X obj 259 81 inlet;
#X obj 260 113 unpack f f;
#X obj 317 138 t b f;
#X obj 344 295 outlet;
#X obj 260 296 outlet;
#X obj 360 168 delay;
#X obj 274 223 f;
#X msg 387 223 0;
#X obj 360 197 t b b;
#X obj 387 106 inlet;
#X connect 0 0 1 0;
#X connect 1 0 6 1;
#X connect 1 0 4 0;
#X connect 1 1 2 0;
#X connect 2 0 5 0;
#X connect 2 1 3 0;
#X connect 5 0 8 0;
#X connect 6 0 4 0;
#X connect 7 0 3 0;
#X connect 8 0 6 0;
#X connect 8 1 7 0;
#X connect 9 0 5 1;
