#N canvas 634 220 450 300 10;
#X obj 74 116 clip~ -0.5 0.5;
#X obj 166 223 outlet~;
#X obj 73 18 inlet~;
#X obj 73 50 lop~ 4000;
#X obj 151 48 hip~ 4000;
#X obj 173 154 +~;
#X obj 166 190 *~ 0.5;
#X obj 172 116 clip~ -0.75 0.75;
#X obj 74 83 *~ 100;
#X obj 172 83 *~ 40;
#X connect 0 0 5 0;
#X connect 2 0 3 0;
#X connect 2 0 4 0;
#X connect 3 0 8 0;
#X connect 4 0 9 0;
#X connect 5 0 6 0;
#X connect 6 0 1 0;
#X connect 7 0 5 0;
#X connect 8 0 0 0;
#X connect 9 0 7 0;
