#N canvas 0 22 919 579 10;
#X obj 95 131 mtof;
#X obj 440 256 / 127;
#X obj 131 428 *~;
#X obj 110 57 inlet;
#X obj 131 501 outlet~;
#X obj 131 460 *~;
#X obj 413 195 sel 0;
#X obj 110 86 unpack f f;
#X obj 90 383 lop~ \$1;
#X obj 93 171 sig~;
#X obj 109 216 *~;
#X obj 109 250 osc~;
#X obj 109 280 *~;
#X obj 91 323 +~;
#X obj 90 352 phasor~;
#X obj 300 195 adsr, f 15;
#X obj 318 40 inlet attack;
#X obj 404 41 inlet decay;
#X obj 481 41 inlet sustain;
#X obj 572 42 inlet release;
#X obj 677 43 inlet harm_ratio;
#X obj 788 43 inlet mod_index;
#X obj 677 70 s \$0-harm_ratio;
#X obj 788 70 s \$0-mod_index;
#X obj 146 250 r \$0-mod_index;
#X obj 133 171 r \$0-harm_ratio;
#X connect 0 0 8 1;
#X connect 0 0 9 0;
#X connect 1 0 5 1;
#X connect 2 0 5 0;
#X connect 3 0 7 0;
#X connect 5 0 4 0;
#X connect 6 1 1 0;
#X connect 7 0 0 0;
#X connect 7 1 6 0;
#X connect 7 1 15 0;
#X connect 8 0 2 0;
#X connect 9 0 10 0;
#X connect 9 0 13 0;
#X connect 10 0 11 0;
#X connect 11 0 12 0;
#X connect 12 0 13 1;
#X connect 13 0 14 0;
#X connect 14 0 8 0;
#X connect 15 0 2 1;
#X connect 16 0 15 1;
#X connect 17 0 15 2;
#X connect 18 0 15 3;
#X connect 19 0 15 4;
#X connect 20 0 22 0;
#X connect 21 0 23 0;
#X connect 24 0 12 1;
#X connect 25 0 10 1;
