#N canvas 0 22 522 375 10;
#X obj 167 40 inlet;
#X obj 177 312 outlet~;
#X obj 167 68 sel 0;
#X obj 194 96 t b b b;
#X obj 211 157 pack 1 0;
#X obj 177 266 line~;
#X obj 275 123 + 1;
#X obj 275 157 delay;
#X obj 275 190 pack 0 0 0;
#X obj 275 221 route 0;
#X obj 57 151 pack 0 0;
#X msg 167 123 stop;
#X obj 177 157 f 0;
#X obj 253 37 r pad_att;
#X obj 295 60 r pad_dec;
#X obj 344 86 r pad_sus;
#X obj 74 74 r pad_rel;
#X connect 0 0 2 0;
#X connect 2 0 10 0;
#X connect 2 0 11 0;
#X connect 2 1 3 0;
#X connect 3 0 7 0;
#X connect 3 1 4 0;
#X connect 3 2 12 0;
#X connect 4 0 5 0;
#X connect 5 0 1 0;
#X connect 6 0 7 1;
#X connect 7 0 8 0;
#X connect 8 0 9 0;
#X connect 9 0 5 0;
#X connect 10 0 5 0;
#X connect 11 0 7 0;
#X connect 12 0 5 0;
#X connect 13 0 4 1;
#X connect 13 0 6 0;
#X connect 14 0 8 2;
#X connect 15 0 8 1;
#X connect 16 0 10 1;
