#N canvas 257 143 1267 653 10;
#X obj 93 143 pack 0 0 0;
#X obj 92 62 inlet;
#X obj 144 69 inlet;
#X text 91 44 midi pitch;
#X text 164 46 vel;
#X obj 97 509 *~;
#X obj 97 549 outlet~;
#X obj 93 171 route 1 2 3 4 5 6 7 8 9 10 11 12 13 14 15 16, f 170
;
#X obj 93 116 poly 16 1;
#X obj 95 273 note, f 8;
#X obj 351 273 note, f 9;
#X obj 153 273 note, f 9;
#X obj 218 272 note, f 9;
#X obj 283 273 note, f 10;
#X obj 415 273 note, f 10;
#X obj 544 271 note, f 10;
#X obj 486 272 note, f 8;
#X obj 676 271 note, f 8;
#X obj 615 271 note, f 8;
#X obj 805 271 note, f 8;
#X obj 738 271 note, f 9;
#X obj 931 271 note, f 8;
#X obj 870 270 note, f 8;
#X obj 1062 273 note, f 9;
#X obj 995 273 note, f 9;
#X obj 480 505 hsl 128 15 0 1 0 0 empty empty Volume -2 -8 0 10 -262144
-1 -1 6350 1;
#X obj 450 439 loadbang;
#X msg 451 467 0.5;
#X obj 695 64 r \$0-attack;
#X obj 800 64 r \$0-decay;
#X obj 895 65 r \$0-sustain;
#X obj 1000 67 r \$0-release;
#X obj 229 43 loadbang;
#X msg 230 68 10;
#X obj 230 93 s \$0-attack;
#X obj 308 93 s \$0-decay;
#X obj 377 93 s \$0-sustain;
#X obj 458 93 s \$0-release;
#X obj 295 42 inlet attack;
#X obj 384 43 inlet decay;
#X obj 467 45 inlet sustain;
#X obj 563 46 inlet release;
#X msg 30 88 stop;
#X obj 30 60 r clear;
#X connect 0 0 7 0;
#X connect 1 0 8 0;
#X connect 2 0 8 1;
#X connect 5 0 6 0;
#X connect 7 0 9 0;
#X connect 7 1 11 0;
#X connect 7 2 12 0;
#X connect 7 3 13 0;
#X connect 7 4 10 0;
#X connect 7 5 14 0;
#X connect 7 6 16 0;
#X connect 7 7 15 0;
#X connect 7 8 18 0;
#X connect 7 9 17 0;
#X connect 7 10 20 0;
#X connect 7 11 19 0;
#X connect 7 12 22 0;
#X connect 7 13 21 0;
#X connect 7 14 24 0;
#X connect 7 15 23 0;
#X connect 8 0 0 0;
#X connect 8 1 0 1;
#X connect 8 2 0 2;
#X connect 9 0 5 0;
#X connect 10 0 5 0;
#X connect 11 0 5 0;
#X connect 12 0 5 0;
#X connect 13 0 5 0;
#X connect 14 0 5 0;
#X connect 15 0 5 0;
#X connect 16 0 5 0;
#X connect 17 0 5 0;
#X connect 18 0 5 0;
#X connect 19 0 5 0;
#X connect 20 0 5 0;
#X connect 21 0 5 0;
#X connect 22 0 5 0;
#X connect 23 0 5 0;
#X connect 24 0 5 0;
#X connect 25 0 5 1;
#X connect 26 0 27 0;
#X connect 27 0 25 0;
#X connect 28 0 9 1;
#X connect 28 0 11 1;
#X connect 28 0 12 1;
#X connect 28 0 13 1;
#X connect 28 0 10 1;
#X connect 28 0 14 1;
#X connect 28 0 16 1;
#X connect 28 0 15 1;
#X connect 28 0 18 1;
#X connect 28 0 17 1;
#X connect 28 0 20 1;
#X connect 28 0 19 1;
#X connect 28 0 22 1;
#X connect 28 0 21 1;
#X connect 28 0 24 1;
#X connect 28 0 23 1;
#X connect 29 0 9 2;
#X connect 29 0 11 2;
#X connect 29 0 12 2;
#X connect 29 0 13 2;
#X connect 29 0 10 2;
#X connect 29 0 14 2;
#X connect 29 0 16 2;
#X connect 29 0 15 2;
#X connect 29 0 18 2;
#X connect 29 0 17 2;
#X connect 29 0 20 2;
#X connect 29 0 19 2;
#X connect 29 0 22 2;
#X connect 29 0 21 2;
#X connect 29 0 24 2;
#X connect 29 0 23 2;
#X connect 30 0 9 3;
#X connect 30 0 11 3;
#X connect 30 0 12 3;
#X connect 30 0 13 3;
#X connect 30 0 10 3;
#X connect 30 0 14 3;
#X connect 30 0 16 3;
#X connect 30 0 15 3;
#X connect 30 0 18 3;
#X connect 30 0 17 3;
#X connect 30 0 20 3;
#X connect 30 0 19 3;
#X connect 30 0 22 3;
#X connect 30 0 21 3;
#X connect 30 0 24 3;
#X connect 30 0 23 3;
#X connect 31 0 9 4;
#X connect 31 0 11 4;
#X connect 31 0 12 4;
#X connect 31 0 13 4;
#X connect 31 0 10 4;
#X connect 31 0 14 4;
#X connect 31 0 16 4;
#X connect 31 0 15 4;
#X connect 31 0 18 4;
#X connect 31 0 17 4;
#X connect 31 0 20 4;
#X connect 31 0 19 4;
#X connect 31 0 22 4;
#X connect 31 0 21 4;
#X connect 31 0 24 4;
#X connect 31 0 23 4;
#X connect 32 0 33 0;
#X connect 33 0 34 0;
#X connect 33 0 35 0;
#X connect 33 0 36 0;
#X connect 33 0 37 0;
#X connect 38 0 34 0;
#X connect 39 0 35 0;
#X connect 40 0 36 0;
#X connect 41 0 37 0;
#X connect 42 0 8 0;
#X connect 43 0 42 0;
