#N canvas 321 402 2291 939 10;
#X obj 80 182 pack 0 0 0;
#X obj 79 101 inlet;
#X obj 131 108 inlet;
#X text 78 83 midi pitch;
#X text 151 85 vel;
#X obj 77 637 *~;
#X obj 77 677 outlet~;
#X obj 738 587 hsl 128 15 0 1 0 0 empty empty Volume -2 -8 0 10 -262144
-1 -1 6350 1;
#X obj 80 212 route 1 2 3 4 5 6 7 8 9 10 11 12 13 14 15 16, f 311
;
#X msg 23 131 stop;
#X obj 80 155 poly 16 1;
#X obj 841 536 loadbang;
#X msg 842 564 0.5;
#X obj 22 98 r clear;
#X obj 249 110 inlet attack;
#X obj 335 110 inlet decay;
#X obj 418 109 inlet sustain;
#X obj 510 109 inlet release;
#X obj 608 110 inlet harm_ratio;
#X obj 719 110 inlet mod_index;
#X obj 608 132 s \$0-harm_ratio;
#X obj 719 132 s \$0-mod_index;
#X obj 249 132 s \$0-attack;
#X obj 335 132 s \$0-decay;
#X obj 418 131 s \$0-sustain;
#X obj 510 131 s \$0-release;
#X obj 91 235 r \$0-attack;
#X obj 105 260 r \$0-decay;
#X obj 119 283 r \$0-sustain;
#X obj 133 307 r \$0-relase;
#X obj 146 331 r \$0-harm_ratio;
#X obj 159 360 r \$0-mod_index;
#X obj 206 234 r \$0-attack;
#X obj 220 259 r \$0-decay;
#X obj 234 282 r \$0-sustain;
#X obj 248 306 r \$0-relase;
#X obj 261 330 r \$0-harm_ratio;
#X obj 274 359 r \$0-mod_index;
#X obj 325 237 r \$0-attack;
#X obj 339 262 r \$0-decay;
#X obj 353 285 r \$0-sustain;
#X obj 367 309 r \$0-relase;
#X obj 380 333 r \$0-harm_ratio;
#X obj 393 362 r \$0-mod_index;
#X obj 441 238 r \$0-attack;
#X obj 455 263 r \$0-decay;
#X obj 469 286 r \$0-sustain;
#X obj 483 310 r \$0-relase;
#X obj 496 334 r \$0-harm_ratio;
#X obj 509 363 r \$0-mod_index;
#X obj 558 240 r \$0-attack;
#X obj 572 265 r \$0-decay;
#X obj 586 288 r \$0-sustain;
#X obj 600 312 r \$0-relase;
#X obj 613 336 r \$0-harm_ratio;
#X obj 626 366 r \$0-mod_index;
#X obj 676 241 r \$0-attack;
#X obj 690 266 r \$0-decay;
#X obj 704 289 r \$0-sustain;
#X obj 718 313 r \$0-relase;
#X obj 731 337 r \$0-harm_ratio;
#X obj 744 366 r \$0-mod_index;
#X obj 792 239 r \$0-attack;
#X obj 806 264 r \$0-decay;
#X obj 820 287 r \$0-sustain;
#X obj 834 311 r \$0-relase;
#X obj 847 335 r \$0-harm_ratio;
#X obj 860 364 r \$0-mod_index;
#X obj 909 239 r \$0-attack;
#X obj 923 264 r \$0-decay;
#X obj 937 287 r \$0-sustain;
#X obj 951 311 r \$0-relase;
#X obj 964 335 r \$0-harm_ratio;
#X obj 977 364 r \$0-mod_index;
#X obj 1020 237 r \$0-attack;
#X obj 1034 262 r \$0-decay;
#X obj 1048 285 r \$0-sustain;
#X obj 1062 309 r \$0-relase;
#X obj 1075 333 r \$0-harm_ratio;
#X obj 1088 362 r \$0-mod_index;
#X obj 1138 237 r \$0-attack;
#X obj 1152 262 r \$0-decay;
#X obj 1166 285 r \$0-sustain;
#X obj 1180 309 r \$0-relase;
#X obj 1193 333 r \$0-harm_ratio;
#X obj 1206 362 r \$0-mod_index;
#X obj 1256 242 r \$0-attack;
#X obj 1270 267 r \$0-decay;
#X obj 1284 290 r \$0-sustain;
#X obj 1298 314 r \$0-relase;
#X obj 1311 338 r \$0-harm_ratio;
#X obj 1324 367 r \$0-mod_index;
#X obj 1374 242 r \$0-attack;
#X obj 1388 267 r \$0-decay;
#X obj 1402 290 r \$0-sustain;
#X obj 1416 314 r \$0-relase;
#X obj 1429 338 r \$0-harm_ratio;
#X obj 1442 367 r \$0-mod_index;
#X obj 1490 242 r \$0-attack;
#X obj 1504 267 r \$0-decay;
#X obj 1518 290 r \$0-sustain;
#X obj 1532 314 r \$0-relase;
#X obj 1545 338 r \$0-harm_ratio;
#X obj 1555 368 r \$0-mod_index;
#X obj 1607 240 r \$0-attack;
#X obj 1621 265 r \$0-decay;
#X obj 1635 288 r \$0-sustain;
#X obj 1649 312 r \$0-relase;
#X obj 1662 336 r \$0-harm_ratio;
#X obj 1675 365 r \$0-mod_index;
#X obj 1719 240 r \$0-attack;
#X obj 1733 265 r \$0-decay;
#X obj 1747 288 r \$0-sustain;
#X obj 1761 312 r \$0-relase;
#X obj 1774 336 r \$0-harm_ratio;
#X obj 1784 366 r \$0-mod_index;
#X obj 1836 238 r \$0-attack;
#X obj 1850 263 r \$0-decay;
#X obj 1864 286 r \$0-sustain;
#X obj 1878 310 r \$0-relase;
#X obj 1891 334 r \$0-harm_ratio;
#X obj 1904 363 r \$0-mod_index;
#X obj 78 396 noteFM, f 14;
#X obj 825 110 inlet mod_env;
#X obj 825 132 s \$0-mod_env;
#X obj 94 422 r \$0-mod_env;
#X obj 324 422 r \$0-mod_env;
#X obj 204 422 r \$0-mod_env;
#X obj 562 422 r \$0-mod_env;
#X obj 451 422 r \$0-mod_env;
#X obj 771 422 r \$0-mod_env;
#X obj 660 422 r \$0-mod_env;
#X obj 1015 422 r \$0-mod_env;
#X obj 902 422 r \$0-mod_env;
#X obj 1255 422 r \$0-mod_env;
#X obj 1134 422 r \$0-mod_env;
#X obj 1487 422 r \$0-mod_env;
#X obj 1365 422 r \$0-mod_env;
#X obj 1715 422 r \$0-mod_env;
#X obj 1600 422 r \$0-mod_env;
#X obj 1831 422 r \$0-mod_env;
#X obj 193 395 noteFM, f 14;
#X obj 312 398 noteFM, f 14;
#X obj 428 399 noteFM, f 14;
#X obj 545 401 noteFM, f 14;
#X obj 663 402 noteFM, f 14;
#X obj 779 400 noteFM, f 14;
#X obj 896 400 noteFM, f 14;
#X obj 1007 398 noteFM, f 14;
#X obj 1125 398 noteFM, f 14;
#X obj 1243 403 noteFM, f 14;
#X obj 1361 403 noteFM, f 14;
#X obj 1477 403 noteFM, f 14;
#X obj 1594 401 noteFM, f 14;
#X obj 1706 401 noteFM, f 14;
#X obj 1823 399 noteFM, f 14;
#X connect 0 0 8 0;
#X connect 1 0 10 0;
#X connect 2 0 10 1;
#X connect 5 0 6 0;
#X connect 7 0 5 1;
#X connect 8 0 122 0;
#X connect 8 1 141 0;
#X connect 8 2 142 0;
#X connect 8 3 143 0;
#X connect 8 4 144 0;
#X connect 8 5 145 0;
#X connect 8 6 146 0;
#X connect 8 7 147 0;
#X connect 8 9 149 0;
#X connect 8 10 150 0;
#X connect 8 11 151 0;
#X connect 8 12 152 0;
#X connect 8 13 153 0;
#X connect 8 14 154 0;
#X connect 8 15 155 0;
#X connect 9 0 10 0;
#X connect 10 0 0 0;
#X connect 10 1 0 1;
#X connect 10 2 0 2;
#X connect 11 0 12 0;
#X connect 12 0 7 0;
#X connect 13 0 9 0;
#X connect 14 0 22 0;
#X connect 15 0 23 0;
#X connect 16 0 24 0;
#X connect 17 0 25 0;
#X connect 18 0 20 0;
#X connect 19 0 21 0;
#X connect 26 0 122 1;
#X connect 27 0 122 2;
#X connect 28 0 122 3;
#X connect 29 0 122 4;
#X connect 30 0 122 5;
#X connect 31 0 122 6;
#X connect 32 0 141 1;
#X connect 33 0 141 2;
#X connect 34 0 141 3;
#X connect 35 0 141 4;
#X connect 36 0 141 5;
#X connect 37 0 141 6;
#X connect 38 0 142 1;
#X connect 39 0 142 2;
#X connect 40 0 142 3;
#X connect 41 0 142 4;
#X connect 42 0 142 5;
#X connect 43 0 142 6;
#X connect 44 0 143 1;
#X connect 45 0 143 2;
#X connect 46 0 143 3;
#X connect 47 0 143 4;
#X connect 48 0 143 5;
#X connect 49 0 143 6;
#X connect 50 0 144 1;
#X connect 51 0 144 2;
#X connect 52 0 144 3;
#X connect 53 0 144 4;
#X connect 54 0 144 5;
#X connect 55 0 144 6;
#X connect 56 0 145 1;
#X connect 57 0 145 2;
#X connect 58 0 145 3;
#X connect 59 0 145 4;
#X connect 60 0 145 5;
#X connect 61 0 145 6;
#X connect 62 0 146 1;
#X connect 63 0 146 2;
#X connect 64 0 146 3;
#X connect 65 0 146 4;
#X connect 66 0 146 5;
#X connect 67 0 146 6;
#X connect 68 0 147 1;
#X connect 69 0 147 2;
#X connect 70 0 147 3;
#X connect 71 0 147 4;
#X connect 72 0 147 5;
#X connect 73 0 147 6;
#X connect 74 0 148 1;
#X connect 75 0 148 2;
#X connect 76 0 148 3;
#X connect 77 0 148 4;
#X connect 78 0 148 5;
#X connect 79 0 148 6;
#X connect 80 0 149 1;
#X connect 81 0 149 2;
#X connect 82 0 149 3;
#X connect 83 0 149 4;
#X connect 84 0 149 5;
#X connect 85 0 149 6;
#X connect 86 0 150 1;
#X connect 87 0 150 2;
#X connect 88 0 150 3;
#X connect 89 0 150 4;
#X connect 90 0 150 5;
#X connect 91 0 150 6;
#X connect 92 0 151 1;
#X connect 93 0 151 2;
#X connect 94 0 151 3;
#X connect 95 0 151 4;
#X connect 96 0 151 5;
#X connect 97 0 151 6;
#X connect 98 0 152 1;
#X connect 99 0 152 2;
#X connect 100 0 152 3;
#X connect 101 0 152 4;
#X connect 102 0 152 5;
#X connect 103 0 152 6;
#X connect 104 0 153 1;
#X connect 105 0 153 2;
#X connect 106 0 153 3;
#X connect 107 0 153 4;
#X connect 108 0 153 5;
#X connect 109 0 153 6;
#X connect 110 0 154 1;
#X connect 111 0 154 2;
#X connect 112 0 154 3;
#X connect 113 0 154 4;
#X connect 114 0 154 5;
#X connect 115 0 154 6;
#X connect 116 0 155 1;
#X connect 117 0 155 2;
#X connect 118 0 155 3;
#X connect 119 0 155 4;
#X connect 120 0 155 5;
#X connect 121 0 155 6;
#X connect 122 0 5 0;
#X connect 123 0 124 0;
#X connect 125 0 122 7;
#X connect 126 0 142 7;
#X connect 127 0 141 7;
#X connect 128 0 144 7;
#X connect 129 0 143 7;
#X connect 130 0 146 7;
#X connect 131 0 145 7;
#X connect 132 0 148 7;
#X connect 133 0 147 7;
#X connect 134 0 150 7;
#X connect 135 0 149 7;
#X connect 136 0 152 7;
#X connect 137 0 151 7;
#X connect 138 0 154 7;
#X connect 139 0 153 6;
#X connect 140 0 155 7;
#X connect 141 0 5 0;
#X connect 142 0 5 0;
#X connect 143 0 5 0;
#X connect 144 0 5 0;
#X connect 145 0 5 0;
#X connect 146 0 5 0;
#X connect 147 0 5 0;
#X connect 148 0 5 0;
#X connect 149 0 5 0;
#X connect 150 0 5 0;
#X connect 151 0 5 0;
#X connect 152 0 5 0;
#X connect 153 0 5 0;
#X connect 154 0 5 0;
#X connect 155 0 5 0;
