#N canvas 0 22 607 423 10;
#X obj 154 136 pack 0 0 0;
#X obj 154 72 inlet note;
#X obj 227 70 inlet velocity;
#X obj 154 160 route 1 2 3 4 5 6 7 8 ===========================;
#X obj 222 274 outlet;
#X obj 291 274 outlet;
#X obj 357 69 inlet duration;
#X obj 155 184 note_pair;
#X obj 177 206 note_pair;
#X obj 245 205 note_pair;
#X obj 221 184 note_pair;
#X obj 315 204 note_pair;
#X obj 288 184 note_pair;
#X obj 383 203 note_pair;
#X obj 356 183 note_pair;
#X obj 154 109 poly 8 1;
#X connect 0 0 3 0;
#X connect 1 0 15 0;
#X connect 2 0 15 1;
#X connect 3 0 7 0;
#X connect 3 1 8 0;
#X connect 3 2 10 0;
#X connect 3 3 9 0;
#X connect 3 4 12 0;
#X connect 3 5 11 0;
#X connect 3 6 14 0;
#X connect 3 7 13 0;
#X connect 6 0 7 1;
#X connect 6 0 8 1;
#X connect 6 0 9 1;
#X connect 6 0 10 1;
#X connect 6 0 11 1;
#X connect 6 0 12 1;
#X connect 6 0 13 1;
#X connect 6 0 14 1;
#X connect 7 0 4 0;
#X connect 7 1 5 0;
#X connect 8 0 4 0;
#X connect 8 1 5 0;
#X connect 9 0 4 0;
#X connect 9 1 5 0;
#X connect 10 0 4 0;
#X connect 10 1 5 0;
#X connect 11 0 4 0;
#X connect 11 1 5 0;
#X connect 12 0 4 0;
#X connect 12 1 5 0;
#X connect 13 0 4 0;
#X connect 13 1 5 0;
#X connect 14 0 4 0;
#X connect 14 1 5 0;
#X connect 15 0 0 0;
#X connect 15 1 0 1;
#X connect 15 2 0 2;
