#N canvas 746 175 1194 858 10;
#X text 682 344 octave(1-8);
#X floatatom 647 347 5 0 0 0 - - -, f 5;
#X obj 647 369 * 12;
#X text 398 288 key;
#X msg 284 371 0;
#X msg 313 370 1;
#X msg 343 370 2;
#X msg 373 370 3;
#X msg 403 370 4;
#X msg 433 370 5;
#X msg 463 370 6;
#X msg 493 370 7;
#X msg 524 370 8;
#X msg 554 370 9;
#X msg 584 370 10;
#X msg 615 370 11;
#X floatatom 401 625 5 0 0 0 - - -, f 5;
#X floatatom 323 625 5 0 0 0 - - -, f 5;
#X floatatom 286 625 5 0 0 0 - - -, f 5;
#X floatatom 363 625 5 0 0 0 - - -, f 5;
#X floatatom 444 625 5 0 0 0 - - -, f 5;
#X floatatom 489 625 5 0 0 0 - - -, f 5;
#X floatatom 569 625 5 0 0 0 - - -, f 5;
#X floatatom 530 625 5 0 0 0 - - -, f 5;
#X floatatom 606 625 5 0 0 0 - - -, f 5;
#X floatatom 649 625 5 0 0 0 - - -, f 5;
#X floatatom 696 624 5 0 0 0 - - -, f 5;
#X floatatom 737 625 5 0 0 0 - - -, f 5;
#X floatatom 780 625 5 0 0 0 - - -, f 5;
#X floatatom 823 625 5 0 0 0 - - -, f 5;
#X floatatom 868 625 5 0 0 0 - - -, f 5;
#X floatatom 286 562 5 0 0 0 - - -, f 5;
#X floatatom 346 563 5 0 0 0 - - -, f 5;
#X floatatom 428 563 5 0 0 0 - - -, f 5;
#X floatatom 387 563 5 0 0 0 - - -, f 5;
#X floatatom 472 563 5 0 0 0 - - -, f 5;
#X floatatom 513 563 5 0 0 0 - - -, f 5;
#X floatatom 556 563 5 0 0 0 - - -, f 5;
#X floatatom 601 563 5 0 0 0 - - -, f 5;
#X text 638 558 current scale;
#X obj 286 533 +;
#X obj 387 534 +;
#X obj 428 534 +;
#X obj 472 534 +;
#X obj 513 534 +;
#X obj 556 534 +;
#X obj 601 534 +;
#X obj 286 504 r s1;
#X obj 472 505 r s5;
#X obj 346 505 r s2;
#X obj 387 505 r s3;
#X obj 428 505 r s4;
#X obj 513 505 r s6;
#X obj 556 505 r s7;
#X obj 601 505 r s8;
#X obj 346 534 +;
#X obj 286 460 int;
#X obj 286 432 r b;
#X obj 315 433 +;
#X obj 607 602 + 12;
#X obj 650 602 + 12;
#X obj 694 602 + 12;
#X obj 737 601 + 12;
#X obj 781 601 + 12;
#X obj 825 602 + 12;
#X obj 869 602 + 12;
#X obj 448 410 trigger b f;
#X obj 346 479 trigger b f;
#X obj 285 406 trigger b f, f 18;
#X symbolatom 641 542 10 0 0 0 - - -, f 10;
#X obj 641 514 r s;
#X obj 740 195 sel 1 2 3 4 5 6 7;
#X obj 285 322 sel 0 1 2 3 4 5 6 7 8 9 10 11 ---------;
#X floatatom 354 289 5 0 0 0 - - -, f 5;
#N canvas 101 92 502 235 major 0;
#X obj 95 72 t b b b b b b b b b, f 48;
#X msg 166 99 2;
#X msg 202 99 4;
#X msg 238 99 5;
#X msg 273 100 7;
#X msg 308 100 9;
#X msg 345 99 11;
#X msg 380 99 12;
#X msg 95 100 set maj;
#X msg 131 123 0;
#X obj 95 21 inlet;
#X obj 95 46 bng 15 250 50 0 empty empty empty 17 7 0 10 -262144 -1
-1;
#X obj 131 150 s s1;
#X obj 168 128 s s2;
#X obj 204 128 s s3;
#X obj 239 129 s s4;
#X obj 273 130 s s5;
#X obj 308 129 s s6;
#X obj 346 132 s s7;
#X obj 381 133 s s8;
#X obj 95 130 s s;
#X obj 62 101 s b;
#X connect 0 0 8 0;
#X connect 0 0 21 0;
#X connect 0 1 9 0;
#X connect 0 2 1 0;
#X connect 0 3 2 0;
#X connect 0 4 3 0;
#X connect 0 5 4 0;
#X connect 0 6 5 0;
#X connect 0 7 6 0;
#X connect 0 8 7 0;
#X connect 1 0 13 0;
#X connect 2 0 14 0;
#X connect 3 0 15 0;
#X connect 4 0 16 0;
#X connect 5 0 17 0;
#X connect 6 0 18 0;
#X connect 7 0 19 0;
#X connect 8 0 20 0;
#X connect 9 0 12 0;
#X connect 10 0 11 0;
#X connect 11 0 0 0;
#X restore 741 236 pd major;
#N canvas 0 22 492 227 minor 0;
#X obj 95 72 t b b b b b b b b b, f 48;
#X msg 166 99 2;
#X msg 238 99 5;
#X msg 273 100 7;
#X msg 380 99 12;
#X msg 131 123 0;
#X obj 95 21 inlet;
#X obj 95 46 bng 15 250 50 0 empty empty empty 17 7 0 10 -262144 -1
-1;
#X obj 131 150 s s1;
#X obj 168 128 s s2;
#X obj 204 128 s s3;
#X obj 239 129 s s4;
#X obj 273 130 s s5;
#X obj 308 129 s s6;
#X obj 346 132 s s7;
#X obj 381 133 s s8;
#X obj 95 130 s s;
#X msg 202 99 3;
#X msg 308 100 8;
#X msg 345 99 10;
#X obj 68 101 s b;
#X msg 95 100 set min;
#X connect 0 0 21 0;
#X connect 0 0 20 0;
#X connect 0 1 5 0;
#X connect 0 2 1 0;
#X connect 0 3 17 0;
#X connect 0 4 2 0;
#X connect 0 5 3 0;
#X connect 0 6 18 0;
#X connect 0 7 19 0;
#X connect 0 8 4 0;
#X connect 1 0 9 0;
#X connect 2 0 11 0;
#X connect 3 0 12 0;
#X connect 4 0 15 0;
#X connect 5 0 8 0;
#X connect 6 0 7 0;
#X connect 7 0 0 0;
#X connect 17 0 10 0;
#X connect 18 0 13 0;
#X connect 19 0 14 0;
#X connect 21 0 16 0;
#X restore 756 259 pd minor;
#N canvas 0 22 465 229 lydian 0;
#X obj 95 72 t b b b b b b b b b, f 48;
#X msg 166 99 2;
#X msg 202 99 4;
#X msg 273 100 7;
#X msg 308 100 9;
#X msg 345 99 11;
#X msg 380 99 12;
#X msg 131 123 0;
#X obj 95 21 inlet;
#X obj 95 46 bng 15 250 50 0 empty empty empty 17 7 0 10 -262144 -1
-1;
#X obj 131 150 s s1;
#X obj 168 128 s s2;
#X obj 204 128 s s3;
#X obj 239 129 s s4;
#X obj 273 130 s s5;
#X obj 308 129 s s6;
#X obj 346 132 s s7;
#X obj 381 133 s s8;
#X obj 95 130 s s;
#X obj 62 101 s b;
#X msg 238 99 6;
#X msg 95 100 set lyd;
#X connect 0 0 21 0;
#X connect 0 0 19 0;
#X connect 0 1 7 0;
#X connect 0 2 1 0;
#X connect 0 3 2 0;
#X connect 0 4 20 0;
#X connect 0 5 3 0;
#X connect 0 6 4 0;
#X connect 0 7 5 0;
#X connect 0 8 6 0;
#X connect 1 0 11 0;
#X connect 2 0 12 0;
#X connect 3 0 14 0;
#X connect 4 0 15 0;
#X connect 5 0 16 0;
#X connect 6 0 17 0;
#X connect 7 0 10 0;
#X connect 8 0 9 0;
#X connect 9 0 0 0;
#X connect 20 0 13 0;
#X connect 21 0 18 0;
#X restore 770 283 pd lydian;
#N canvas 0 22 450 300 mixolydian 0;
#X obj 81 108 t b b b b b b b b b, f 48;
#X msg 152 135 2;
#X msg 188 135 4;
#X msg 224 135 5;
#X msg 259 136 7;
#X msg 294 136 9;
#X msg 366 135 12;
#X msg 117 159 0;
#X obj 81 57 inlet;
#X obj 81 82 bng 15 250 50 0 empty empty empty 17 7 0 10 -262144 -1
-1;
#X obj 117 186 s s1;
#X obj 154 164 s s2;
#X obj 190 164 s s3;
#X obj 225 165 s s4;
#X obj 259 166 s s5;
#X obj 294 165 s s6;
#X obj 332 168 s s7;
#X obj 367 169 s s8;
#X obj 81 166 s s;
#X obj 48 137 s b;
#X msg 331 135 10;
#X msg 81 136 set mix;
#X connect 0 0 21 0;
#X connect 0 0 19 0;
#X connect 0 1 7 0;
#X connect 0 2 1 0;
#X connect 0 3 2 0;
#X connect 0 4 3 0;
#X connect 0 5 4 0;
#X connect 0 6 5 0;
#X connect 0 7 20 0;
#X connect 0 8 6 0;
#X connect 1 0 11 0;
#X connect 2 0 12 0;
#X connect 3 0 13 0;
#X connect 4 0 14 0;
#X connect 5 0 15 0;
#X connect 6 0 17 0;
#X connect 7 0 10 0;
#X connect 8 0 9 0;
#X connect 9 0 0 0;
#X connect 20 0 16 0;
#X connect 21 0 18 0;
#X restore 785 307 pd mixolydian;
#N canvas 0 22 492 327 dorian 0;
#X obj 100 125 t b b b b b b b b b, f 48;
#X msg 171 152 2;
#X msg 243 152 5;
#X msg 278 153 7;
#X msg 313 153 9;
#X msg 385 152 12;
#X msg 136 176 0;
#X obj 100 74 inlet;
#X obj 100 99 bng 15 250 50 0 empty empty empty 17 7 0 10 -262144 -1
-1;
#X obj 136 203 s s1;
#X obj 173 181 s s2;
#X obj 209 181 s s3;
#X obj 244 182 s s4;
#X obj 278 183 s s5;
#X obj 313 182 s s6;
#X obj 351 185 s s7;
#X obj 386 186 s s8;
#X obj 100 183 s s;
#X obj 67 154 s b;
#X msg 207 152 3;
#X msg 350 152 10;
#X msg 100 153 set dor;
#X connect 0 0 21 0;
#X connect 0 0 18 0;
#X connect 0 1 6 0;
#X connect 0 2 1 0;
#X connect 0 3 19 0;
#X connect 0 4 2 0;
#X connect 0 5 3 0;
#X connect 0 6 4 0;
#X connect 0 7 20 0;
#X connect 0 8 5 0;
#X connect 1 0 10 0;
#X connect 2 0 12 0;
#X connect 3 0 13 0;
#X connect 4 0 14 0;
#X connect 5 0 16 0;
#X connect 6 0 9 0;
#X connect 7 0 8 0;
#X connect 8 0 0 0;
#X connect 19 0 11 0;
#X connect 20 0 15 0;
#X connect 21 0 17 0;
#X restore 833 282 pd dorian;
#N canvas 0 22 450 300 phrygian 0;
#X obj 75 107 t b b b b b b b b b, f 48;
#X msg 218 134 5;
#X msg 253 135 7;
#X msg 360 134 12;
#X msg 111 158 0;
#X obj 75 56 inlet;
#X obj 75 81 bng 15 250 50 0 empty empty empty 17 7 0 10 -262144 -1
-1;
#X obj 111 185 s s1;
#X obj 148 163 s s2;
#X obj 184 163 s s3;
#X obj 219 164 s s4;
#X obj 253 165 s s5;
#X obj 288 164 s s6;
#X obj 326 167 s s7;
#X obj 361 168 s s8;
#X obj 75 165 s s;
#X obj 42 136 s b;
#X msg 146 134 1;
#X msg 182 134 3;
#X msg 288 135 8;
#X msg 325 134 10;
#X msg 75 135 set phryg;
#X connect 0 0 21 0;
#X connect 0 0 16 0;
#X connect 0 1 4 0;
#X connect 0 2 17 0;
#X connect 0 3 18 0;
#X connect 0 4 1 0;
#X connect 0 5 2 0;
#X connect 0 6 19 0;
#X connect 0 7 20 0;
#X connect 0 8 3 0;
#X connect 1 0 10 0;
#X connect 2 0 11 0;
#X connect 3 0 14 0;
#X connect 4 0 7 0;
#X connect 5 0 6 0;
#X connect 6 0 0 0;
#X connect 17 0 8 0;
#X connect 18 0 9 0;
#X connect 19 0 12 0;
#X connect 20 0 13 0;
#X connect 21 0 15 0;
#X restore 825 234 pd phrygian;
#N canvas 0 22 450 300 locrian 0;
#X obj 81 105 t b b b b b b b b b, f 48;
#X msg 224 132 5;
#X msg 366 132 12;
#X msg 117 156 0;
#X obj 81 54 inlet;
#X obj 81 79 bng 15 250 50 0 empty empty empty 17 7 0 10 -262144 -1
-1;
#X obj 117 183 s s1;
#X obj 154 161 s s2;
#X obj 190 161 s s3;
#X obj 225 162 s s4;
#X obj 259 163 s s5;
#X obj 294 162 s s6;
#X obj 332 165 s s7;
#X obj 367 166 s s8;
#X obj 81 163 s s;
#X obj 48 134 s b;
#X msg 152 132 1;
#X msg 188 132 3;
#X msg 259 133 6;
#X msg 294 133 8;
#X msg 331 132 10;
#X msg 81 133 set loc;
#X connect 0 0 21 0;
#X connect 0 0 15 0;
#X connect 0 1 3 0;
#X connect 0 2 16 0;
#X connect 0 3 17 0;
#X connect 0 4 1 0;
#X connect 0 5 18 0;
#X connect 0 6 19 0;
#X connect 0 7 20 0;
#X connect 0 8 2 0;
#X connect 1 0 9 0;
#X connect 2 0 13 0;
#X connect 3 0 6 0;
#X connect 4 0 5 0;
#X connect 5 0 0 0;
#X connect 16 0 7 0;
#X connect 17 0 8 0;
#X connect 18 0 10 0;
#X connect 19 0 11 0;
#X connect 20 0 12 0;
#X connect 21 0 14 0;
#X restore 813 258 pd locrian;
#X floatatom 701 158 5 0 0 0 - - -, f 5;
#X obj 286 648 s deg0;
#X obj 328 648 s deg1;
#X obj 370 648 s deg2;
#X obj 412 648 s deg3;
#X obj 454 648 s deg4;
#X obj 496 648 s deg5;
#X obj 538 648 s deg6;
#X obj 580 648 s deg7;
#X obj 622 648 s deg8;
#X obj 664 648 s deg9;
#X obj 706 648 s deg10;
#X obj 755 648 s deg11;
#X obj 804 648 s deg12;
#X obj 853 648 s deg13;
#X obj 902 648 s deg14;
#X obj 683 367 s oct;
#X obj 285 287 inlet key;
#X obj 645 314 inlet octave;
#X obj 701 119 inlet mode;
#X obj 446 82 loadbang;
#X obj 446 109 t b b b;
#X msg 476 136 6;
#X msg 508 136 2;
#X msg 446 136 0;
#X obj 42 149 t b b b b b b b b b b b b b b b b, f 60;
#X obj 41 182 s clear;
#X obj 252 323 s in;
#X obj 724 367 s in;
#X obj 740 157 s in, f 5;
#X obj 42 120 r in;
#X connect 1 0 2 0;
#X connect 1 0 97 0;
#X connect 2 0 66 0;
#X connect 4 0 68 0;
#X connect 5 0 68 0;
#X connect 6 0 68 0;
#X connect 7 0 68 0;
#X connect 8 0 68 0;
#X connect 9 0 68 0;
#X connect 10 0 68 0;
#X connect 11 0 68 0;
#X connect 12 0 68 0;
#X connect 13 0 68 0;
#X connect 14 0 68 0;
#X connect 15 0 68 0;
#X connect 16 0 85 0;
#X connect 17 0 83 0;
#X connect 18 0 82 0;
#X connect 19 0 84 0;
#X connect 20 0 86 0;
#X connect 21 0 87 0;
#X connect 22 0 89 0;
#X connect 23 0 88 0;
#X connect 24 0 90 0;
#X connect 25 0 91 0;
#X connect 26 0 92 0;
#X connect 27 0 93 0;
#X connect 28 0 94 0;
#X connect 29 0 95 0;
#X connect 30 0 96 0;
#X connect 31 0 18 0;
#X connect 32 0 17 0;
#X connect 32 0 59 0;
#X connect 33 0 16 0;
#X connect 33 0 61 0;
#X connect 34 0 19 0;
#X connect 34 0 60 0;
#X connect 35 0 20 0;
#X connect 35 0 62 0;
#X connect 36 0 21 0;
#X connect 36 0 63 0;
#X connect 37 0 23 0;
#X connect 37 0 64 0;
#X connect 38 0 22 0;
#X connect 38 0 65 0;
#X connect 40 0 31 0;
#X connect 41 0 34 0;
#X connect 42 0 33 0;
#X connect 43 0 35 0;
#X connect 44 0 36 0;
#X connect 45 0 37 0;
#X connect 46 0 38 0;
#X connect 47 0 40 1;
#X connect 48 0 43 0;
#X connect 49 0 55 0;
#X connect 50 0 41 0;
#X connect 51 0 42 0;
#X connect 52 0 44 0;
#X connect 53 0 45 0;
#X connect 54 0 46 0;
#X connect 55 0 32 0;
#X connect 56 0 40 0;
#X connect 56 0 67 0;
#X connect 57 0 56 0;
#X connect 58 0 56 1;
#X connect 59 0 24 0;
#X connect 60 0 25 0;
#X connect 61 0 26 0;
#X connect 62 0 27 0;
#X connect 63 0 28 0;
#X connect 64 0 29 0;
#X connect 65 0 30 0;
#X connect 66 0 56 0;
#X connect 66 1 58 0;
#X connect 67 0 55 0;
#X connect 67 0 41 0;
#X connect 67 0 42 0;
#X connect 67 0 43 0;
#X connect 67 0 44 0;
#X connect 67 0 45 0;
#X connect 67 0 46 0;
#X connect 67 1 55 1;
#X connect 67 1 41 1;
#X connect 67 1 42 1;
#X connect 67 1 43 1;
#X connect 67 1 44 1;
#X connect 67 1 45 1;
#X connect 67 1 46 1;
#X connect 68 0 1 0;
#X connect 68 1 58 1;
#X connect 70 0 69 0;
#X connect 71 0 74 0;
#X connect 71 1 75 0;
#X connect 71 2 76 0;
#X connect 71 3 77 0;
#X connect 71 4 78 0;
#X connect 71 5 80 0;
#X connect 71 6 79 0;
#X connect 72 0 4 0;
#X connect 72 1 5 0;
#X connect 72 2 6 0;
#X connect 72 3 7 0;
#X connect 72 4 8 0;
#X connect 72 5 9 0;
#X connect 72 6 10 0;
#X connect 72 7 11 0;
#X connect 72 8 12 0;
#X connect 72 9 13 0;
#X connect 72 10 14 0;
#X connect 72 11 15 0;
#X connect 73 0 72 0;
#X connect 81 0 71 0;
#X connect 98 0 72 0;
#X connect 98 0 108 0;
#X connect 99 0 1 0;
#X connect 99 0 109 0;
#X connect 100 0 81 0;
#X connect 100 0 110 0;
#X connect 101 0 102 0;
#X connect 102 0 105 0;
#X connect 102 1 103 0;
#X connect 102 2 104 0;
#X connect 103 0 1 0;
#X connect 104 0 81 0;
#X connect 105 0 73 0;
#X connect 106 0 107 0;
#X connect 106 1 107 0;
#X connect 106 2 107 0;
#X connect 106 3 107 0;
#X connect 106 4 107 0;
#X connect 106 5 107 0;
#X connect 106 6 107 0;
#X connect 106 7 107 0;
#X connect 106 8 107 0;
#X connect 106 9 107 0;
#X connect 106 10 107 0;
#X connect 106 11 107 0;
#X connect 106 12 107 0;
#X connect 106 13 107 0;
#X connect 106 14 107 0;
#X connect 106 15 107 0;
#X connect 111 0 106 0;
