#N canvas 0 78 1421 918 10;
#X text 106 124 Default Note Pool;
#X obj 353 701 r \$0-t1;
#X obj 353 723 outlet;
#X obj 404 723 outlet;
#X obj 455 723 outlet;
#X obj 508 723 outlet;
#X obj 559 723 outlet;
#X obj 610 723 outlet;
#X obj 661 723 outlet;
#X obj 404 701 r \$0-t2;
#X obj 455 701 r \$0-t3;
#X obj 508 701 r \$0-t4;
#X obj 559 701 r \$0-t5;
#X obj 610 701 r \$0-t6;
#X obj 661 701 r \$0-t7;
#X msg 308 367 a 5 \, b 5 \, c 0 \, d 0 \, e 0 \, f 0 \, g 0 \, h 0
;
#X msg 309 149 1;
#X msg 308 203 2;
#X msg 308 314 0;
#X msg 307 256 a 4 \, b 4 \, c 6 \, d 5 \, e 3 \, f 3 \, g 3 \, h 3
;
#X msg 308 524 a 0 \, b 6 \, c 0 \, d 0 \, e 0 \, f 0 \, g 0 \, h 0
;
#X msg 308 419 a 4 \, b 4 \, c 4 \, d 4 \, e 6 \, f 6 \, g 6 \, h 6
;
#X msg 307 471 a 4 \, b 4 \, c 4 \, d 4 \, e 5 \, f 5 \, g 5 \, h 2
;
#X obj 30 44 sel 1 2 3 4 5 6 7 8, f 98;
#X obj 30 71 s \$0-theme1;
#X obj 7 128 r \$0-theme1;
#X obj 104 70 s \$0-theme2;
#X obj 288 126 r \$0-theme2;
#X obj 30 18 inlet;
#X msg 41 155 a 2 \, b 2 \, c 2 \, d 2 \, e 2 \, f 2 \, g 2 \, h 3
;
#X msg 40 320 a 4 \, b 4 \, c 4 \, d 4 \, e 4 \, f 2 \, g 4 \, h 1
;
#X msg 40 370 a 5 \, b 5 \, c 0 \, d 0 \, e 0 \, f 0 \, g 0 \, h 0
;
#X msg 39 262 a 4 \, b 4 \, c 4 \, d 4 \, e 4 \, f 4 \, g 4 \, h 0
;
#X msg 40 428 a 6 \, b 6 \, c 6 \, d 4 \, e 4 \, f 4 \, g 4 \, h 4
;
#X msg 39 533 a 0 \, b 2 \, c 0 \, d 0 \, e 0 \, f 0 \, g 0 \, h 0
;
#X msg 39 485 a 0 \, b 2 \, c 0 \, d 0 \, e 0 \, f 0 \, g 7 \, h 7
;
#X msg 40 209 a 0 \, b 2 \, c 0 \, d 0 \, e 0 \, f 0 \, g 0 \, h 0
;
#X msg 577 421 4;
#X msg 576 255 0;
#X obj 541 122 r \$0-theme3;
#X obj 179 70 s \$0-theme3;
#X text 685 41 root \, 1st \, 2nd \, 3rd \, 4th \, 5th \, 6th \, 7th
scale degrees 7th scale degree is octave \, root is 0th scale degree
;
#X msg 577 476 5;
#X msg 576 526 6;
#X msg 577 313 0;
#X msg 577 202 0;
#X obj 41 182 s \$0-t0;
#X obj 40 234 s \$0-t1;
#X obj 39 289 s \$0-t2;
#X obj 41 343 s \$0-t3;
#X obj 40 395 s \$0-t4;
#X obj 40 452 s \$0-t5;
#X obj 39 507 s \$0-t6;
#X obj 39 555 s \$0-t7;
#X obj 307 546 s \$0-t7;
#X obj 307 497 s \$0-t6;
#X obj 308 443 s \$0-t5;
#X obj 308 392 s \$0-t4;
#X obj 308 337 s \$0-t3;
#X obj 307 283 s \$0-t2;
#X obj 308 228 s \$0-t1;
#X obj 309 176 s \$0-t0;
#X obj 578 175 s \$0-t0;
#X obj 577 227 s \$0-t1;
#X obj 576 282 s \$0-t2;
#X obj 577 336 s \$0-t3;
#X obj 577 388 s \$0-t4;
#X obj 577 445 s \$0-t5;
#X obj 577 496 s \$0-t6;
#X obj 576 548 s \$0-t7;
#X obj 294 723 outlet;
#X obj 294 701 r \$0-t0;
#X msg 578 148 a 5 \, b 5 \, c 5 \, d 5 \, e 6 \, f 6 \, g 6 \, h 7
;
#X msg 577 363 a 2 \, b 2 \, c 2 \, d 0 \, e 0 \, f 0 \, g 0 \, h 0
;
#X msg 867 423 4;
#X msg 866 257 0;
#X msg 867 478 5;
#X msg 866 528 6;
#X msg 867 315 0;
#X msg 867 204 0;
#X obj 868 177 s \$0-t0;
#X obj 867 229 s \$0-t1;
#X obj 866 284 s \$0-t2;
#X obj 867 338 s \$0-t3;
#X obj 867 390 s \$0-t4;
#X obj 867 447 s \$0-t5;
#X obj 867 498 s \$0-t6;
#X obj 866 550 s \$0-t7;
#X msg 867 365 a 2 \, b 2 \, c 2 \, d 0 \, e 0 \, f 0 \, g 0 \, h 0
;
#X obj 254 70 s \$0-theme4;
#X obj 831 124 r \$0-theme4;
#X msg 868 150 a 0 \, b 2 \, c 3 \, d 3 \, e 3 \, f 4 \, g 4 \, h 4
;
#X connect 1 0 2 0;
#X connect 9 0 3 0;
#X connect 10 0 4 0;
#X connect 11 0 5 0;
#X connect 12 0 6 0;
#X connect 13 0 7 0;
#X connect 14 0 8 0;
#X connect 15 0 57 0;
#X connect 16 0 61 0;
#X connect 17 0 60 0;
#X connect 18 0 58 0;
#X connect 19 0 59 0;
#X connect 20 0 54 0;
#X connect 21 0 56 0;
#X connect 22 0 55 0;
#X connect 23 0 24 0;
#X connect 23 1 26 0;
#X connect 23 2 40 0;
#X connect 23 3 89 0;
#X connect 25 0 29 0;
#X connect 25 0 36 0;
#X connect 25 0 32 0;
#X connect 25 0 30 0;
#X connect 25 0 31 0;
#X connect 25 0 33 0;
#X connect 25 0 35 0;
#X connect 25 0 34 0;
#X connect 27 0 16 0;
#X connect 27 0 17 0;
#X connect 27 0 19 0;
#X connect 27 0 18 0;
#X connect 27 0 15 0;
#X connect 27 0 21 0;
#X connect 27 0 22 0;
#X connect 27 0 20 0;
#X connect 28 0 23 0;
#X connect 29 0 46 0;
#X connect 30 0 49 0;
#X connect 31 0 50 0;
#X connect 32 0 48 0;
#X connect 33 0 51 0;
#X connect 34 0 53 0;
#X connect 35 0 52 0;
#X connect 36 0 47 0;
#X connect 37 0 67 0;
#X connect 38 0 64 0;
#X connect 39 0 72 0;
#X connect 39 0 45 0;
#X connect 39 0 38 0;
#X connect 39 0 44 0;
#X connect 39 0 73 0;
#X connect 39 0 37 0;
#X connect 39 0 42 0;
#X connect 39 0 43 0;
#X connect 42 0 68 0;
#X connect 43 0 69 0;
#X connect 44 0 65 0;
#X connect 45 0 63 0;
#X connect 71 0 70 0;
#X connect 72 0 62 0;
#X connect 73 0 66 0;
#X connect 74 0 85 0;
#X connect 75 0 82 0;
#X connect 76 0 86 0;
#X connect 77 0 87 0;
#X connect 78 0 83 0;
#X connect 79 0 81 0;
#X connect 88 0 84 0;
#X connect 90 0 91 0;
#X connect 90 0 79 0;
#X connect 90 0 75 0;
#X connect 90 0 78 0;
#X connect 90 0 88 0;
#X connect 90 0 74 0;
#X connect 90 0 76 0;
#X connect 90 0 77 0;
#X connect 91 0 80 0;
